<?xml version="1.0" encoding="utf-8"?><svg xmlns="http://www.w3.org/2000/svg" viewBox="0 0 80 80" fill="#000000"><path d="M 31 10 C 24.404545 10 19 15.404545 19 22 C 19 27.192972 22.355823 31.635209 27 33.294922 L 27 47 C 27 48.535504 27.588387 49.936212 28.544922 51 L 22.603516 51 C 24.07662 49.633437 25 47.683489 25 45.5 C 25 41.33619 21.66381 38 17.5 38 C 13.33619 38 10 41.33619 10 45.5 C 10 47.941713 11.152774 50.092344 12.941406 51.458984 C 11.213918 52.24878 10 53.985371 10 56 L 10 58 A 1.0001 1.0001 0 0 0 11 59 L 17 59 L 17 69 A 1.0001 1.0001 0 1 0 19 69 L 19 59 L 21 59 L 21 69 A 1.0001 1.0001 0 1 0 23 69 L 23 59 L 26 59 A 1.0001 1.0001 0 1 0 26 57 L 22.154297 57 A 1.0001 1.0001 0 0 0 21.984375 56.986328 A 1.0001 1.0001 0 0 0 21.839844 57 L 18.154297 57 A 1.0001 1.0001 0 0 0 17.984375 56.986328 A 1.0001 1.0001 0 0 0 17.839844 57 L 12 57 L 12 56 C 12 54.331516 13.331516 53 15 53 L 17.5 53 L 33 53 L 53 53 C 54.668484 53 56 54.331516 56 56 L 56 57 L 50.154297 57 A 1.0001 1.0001 0 0 0 49.984375 56.986328 A 1.0001 1.0001 0 0 0 49.839844 57 L 46.154297 57 A 1.0001 1.0001 0 0 0 45.984375 56.986328 A 1.0001 1.0001 0 0 0 45.839844 57 L 42 57 A 1.0001 1.0001 0 1 0 42 59 L 45 59 L 45 69 A 1.0001 1.0001 0 1 0 47 69 L 47 59 L 49 59 L 49 69 A 1.0001 1.0001 0 1 0 51 69 L 51 59 L 57 59 A 1.0001 1.0001 0 0 0 58 58 L 58 56 C 58 54.872064 57.607252 53.839057 56.970703 53 L 59.134766 53 L 61.035156 66.070312 A 1.0001 1.0001 0 0 0 61.181641 66.460938 C 61.631119 68.465491 63.363745 70 65.5 70 C 67.973438 70 70 67.973438 70 65.5 C 70 65.281775 69.972879 65.119138 69.949219 64.960938 A 1.0001 1.0001 0 0 0 69.943359 64.839844 L 67.996094 48.408203 C 67.946184 45.424938 65.494625 43 62.5 43 L 56 43 C 52.925323 43 50.019378 42.281831 47.345703 41.537109 C 44.672028 40.792388 42.25 40 40 40 L 35 40 L 35 33.294922 C 39.644177 31.635209 43 27.192972 43 22 C 43 15.404545 37.595455 10 31 10 z M 31 12 C 36.504545 12 41 16.495455 41 22 C 41 27.504545 36.504545 32 31 32 C 25.495455 32 21 27.504545 21 22 C 21 16.495455 25.495455 12 31 12 z M 31 18 C 28.804545 18 27 19.804545 27 22 C 27 24.195455 28.804545 26 31 26 C 33.195455 26 35 24.195455 35 22 C 35 19.804545 33.195455 18 31 18 z M 31 20 C 32.104545 20 33 20.895455 33 22 C 33 23.104545 32.104545 24 31 24 C 29.895455 24 29 23.104545 29 22 C 29 20.895455 29.895455 20 31 20 z M 24 21 A 1 1 0 0 0 23 22 A 1 1 0 0 0 24 23 A 1 1 0 0 0 25 22 A 1 1 0 0 0 24 21 z M 24.914062 24.5 A 1 1 0 0 0 24.4375 24.632812 A 1 1 0 0 0 24.072266 25.998047 A 1 1 0 0 0 25.4375 26.365234 A 1 1 0 0 0 25.804688 24.998047 A 1 1 0 0 0 24.914062 24.5 z M 27.451172 27.064453 A 1 1 0 0 0 26.632812 27.5625 A 1 1 0 0 0 27 28.927734 A 1 1 0 0 0 28.365234 28.5625 A 1 1 0 0 0 28 27.197266 A 1 1 0 0 0 27.451172 27.064453 z M 31 28 A 1 1 0 0 0 30 29 A 1 1 0 0 0 31 30 A 1 1 0 0 0 32 29 A 1 1 0 0 0 31 28 z M 29 33.818359 C 29.652141 33.929371 30.317705 34 31 34 C 31.682295 34 32.347859 33.929371 33 33.818359 L 33 41 A 1.0001 1.0001 0 0 0 34 42 L 40 42 C 41.75 42 44.097019 42.707612 46.808594 43.462891 C 49.520169 44.218169 52.615677 45 56 45 L 62.5 45 C 64.444423 45 66 46.555577 66 48.5 A 1.0001 1.0001 0 0 0 66.007812 48.617188 L 67.847656 64.158203 L 68.748047 63.978516 A 1.0001 1.0001 0 0 0 67.957031 65.115234 C 67.984475 65.289624 68 65.412297 68 65.5 C 68 66.892562 66.892562 68 65.5 68 C 64.213491 68 63.186735 67.046256 63.035156 65.802734 A 1.0001 1.0001 0 0 0 62.986328 65.591797 L 60.990234 51.855469 A 1.0001 1.0001 0 0 0 60 51 L 53 51 L 33 51 C 30.779625 51 29 49.220375 29 47 L 29 33.818359 z M 17.5 40 C 20.61619 40 23 42.38381 23 45.5 C 23 48.61619 20.61619 51 17.5 51 C 14.38381 51 12 48.61619 12 45.5 C 12 42.38381 14.38381 40 17.5 40 z M 30 57 A 1 1 0 0 0 29 58 A 1 1 0 0 0 30 59 A 1 1 0 0 0 31 58 A 1 1 0 0 0 30 57 z M 34 57 A 1 1 0 0 0 33 58 A 1 1 0 0 0 34 59 A 1 1 0 0 0 35 58 A 1 1 0 0 0 34 57 z M 38 57 A 1 1 0 0 0 37 58 A 1 1 0 0 0 38 59 A 1 1 0 0 0 39 58 A 1 1 0 0 0 38 57 z M 14 68 A 1 1 0 0 0 13 69 A 1 1 0 0 0 14 70 A 1 1 0 0 0 15 69 A 1 1 0 0 0 14 68 z M 26 68 A 1 1 0 0 0 25 69 A 1 1 0 0 0 26 70 A 1 1 0 0 0 27 69 A 1 1 0 0 0 26 68 z M 30 68 A 1 1 0 0 0 29 69 A 1 1 0 0 0 30 70 A 1 1 0 0 0 31 69 A 1 1 0 0 0 30 68 z M 34 68 A 1 1 0 0 0 33 69 A 1 1 0 0 0 34 70 A 1 1 0 0 0 35 69 A 1 1 0 0 0 34 68 z M 38 68 A 1 1 0 0 0 37 69 A 1 1 0 0 0 38 70 A 1 1 0 0 0 39 69 A 1 1 0 0 0 38 68 z M 42 68 A 1 1 0 0 0 41 69 A 1 1 0 0 0 42 70 A 1 1 0 0 0 43 69 A 1 1 0 0 0 42 68 z M 54 68 A 1 1 0 0 0 53 69 A 1 1 0 0 0 54 70 A 1 1 0 0 0 55 69 A 1 1 0 0 0 54 68 z" fill="#000000"/></svg>